<?xml version="1.0" encoding="UTF-8"?>
<svg width="48px" height="32px" viewBox="0 0 48 32" version="1.1" xmlns="http://www.w3.org/2000/svg" xmlns:xlink="http://www.w3.org/1999/xlink">
    <!-- Generator: Sketch 52.5 (67469) - http://www.bohemiancoding.com/sketch -->
    <title>Group 15</title>
    <desc>Created with Sketch.</desc>
    <defs>
        <polygon id="path-1" points="0.533333333 0 47.4666667 0 47.4666667 32 0.533333333 32"></polygon>
    </defs>
    <g id="Comps" stroke="none" stroke-width="1" fill="none" fill-rule="evenodd">
        <g id="Home-v2" transform="translate(-69.000000, -55.000000)">
            <g id="Nav-/-Light">
                <g id="Local-Nav" transform="translate(0.000000, 40.000000)">
                    <g id="Nav">
                        <g id="Group-15">
                            <g transform="translate(69.000000, 15.000000)">
                                <mask id="mask-2" fill="white">
                                    <use xlink:href="#path-1"></use>
                                </mask>
                                <g id="Clip-2"></g>
                                <path d="M17.6038845,16.6515245 L19.3916411,16.6515245 L19.3916411,3.40651946 L17.6038845,3.40651946 L17.6038845,16.6515245 Z M20.0222675,0 L14.0620023,0 L13.3333333,3.40651946 L14.0620023,3.40651946 L14.0620023,23.4666667 L17.6038845,23.4666667 L17.6038845,20.0565143 L20.0184674,20.0601472 C21.6276193,20.0622505 22.9333333,18.7500062 22.9333333,17.1306858 L22.9333333,2.92946142 C22.9333333,1.3116706 21.6298994,0 20.0222675,0 Z" id="Fill-1" fill="#FFFFFF" mask="url(#mask-2)"></path>
                                <path d="M3.66472245,16.6537634 L4.82587444,3.40635601 L6.02947215,16.6537634 L3.66472245,16.6537634 Z M2.33533812,0 L0.563277914,16.6537634 L0.193670694,16.6537634 L0.193670694,16.7283342 L-0.533333333,20.0603107 L0.193670694,20.0603107 L0.200841888,20.0603107 L-0.161787953,23.4666667 L3.06757518,23.4666667 L3.36605191,20.0603107 L6.33880258,20.0603107 L6.64832682,23.4666667 L10.1333333,23.4666667 L7.44432937,0 L2.33533812,0 Z" id="Fill-3" fill="#FFFFFF" mask="url(#mask-2)"></path>
                                <polygon id="Fill-4" fill="#FFFFFF" mask="url(#mask-2)" points="25.0666667 3.40635601 25.7745629 3.40635601 25.7745629 23.4666667 33.6 23.4666667 33.6 20.0603107 29.2154737 20.0603107 29.2154737 13.4365113 32.2988369 13.4365113 32.2988369 10.0301553 29.2154737 10.0301553 29.2154737 3.40635601 33.6 3.40635601 33.6 0 25.7745629 0"></polygon>
                                <polygon id="Fill-5" fill="#FFFFFF" mask="url(#mask-2)" points="47.4666667 0 43.935826 0 43.935826 8.2731525 43.0298654 9.19840407 42.1237154 8.2731525 42.1237154 0 38.5930641 0 37.8666667 3.40635601 38.5930641 3.40635601 38.5930641 9.73741713 40.5476129 11.7334289 38.5930641 13.7292495 38.5930641 23.4666667 42.1237154 23.4666667 42.1237154 15.1935142 43.0298654 14.2682626 43.935826 15.1935142 43.935826 23.4666667 47.4666667 23.4666667 47.4666667 13.7292495 45.5123072 11.7334289 47.4666667 9.73741713"></polygon>
                                <polygon id="Fill-6" fill="#FFFFFF" mask="url(#mask-2)" points="0.533333333 29.8666667 9.06666667 29.8666667 9.06666667 28.8 0.533333333 28.8"></polygon>
                                <polygon id="Fill-7" fill="#FFFFFF" mask="url(#mask-2)" points="38.9333333 29.8666667 47.4666667 29.8666667 47.4666667 28.8 38.9333333 28.8"></polygon>
                                <polygon id="Fill-8" fill="#FFFFFF" mask="url(#mask-2)" points="12.1796298 25.6 11.2 25.6 11.2 32 13.3333333 32 13.3333333 31.1771071 12.1796298 31.1771071"></polygon>
                                <polygon id="Fill-9" fill="#FFFFFF" mask="url(#mask-2)" points="15.2276133 29.2845577 16.1011702 29.2845577 16.1011702 28.4616648 15.2276133 28.4616648 15.2276133 26.4228929 16.4689284 26.4228929 16.4689284 25.6 14.4 25.6 14.4 32 16.5333333 32 16.5333333 31.1771071 15.2276133 31.1771071"></polygon>
                                <path d="M20.2999406,25.6 L19.1665359,25.6 C18.8997742,25.6 18.6666667,25.8559416 18.6666667,26.1485953 L18.6666667,31.4605828 C18.6666667,31.7530278 18.8997742,32 19.1665359,32 L20.2999406,32 C20.5750683,32 20.8,31.7530278 20.8,31.4605828 L20.8,28.4618734 L19.7998812,28.4618734 L19.7998812,29.2845577 L20.050101,29.2845577 L20.050101,31.1771071 L19.4165657,31.1771071 L19.4165657,26.4228929 L20.050101,26.4228929 L20.050101,27.5198748 L20.8,27.5198748 L20.8,26.1485953 C20.8,25.8559416 20.5834343,25.6 20.2999406,25.6" id="Fill-10" fill="#FFFFFF" mask="url(#mask-2)"></path>
                                <polygon id="Fill-11" fill="#FFFFFF" mask="url(#mask-2)" points="23.7608183 29.2845577 24.6348807 29.2845577 24.6348807 28.4616648 23.7608183 28.4616648 23.7608183 26.4228929 25.0022554 26.4228929 25.0022554 25.6 22.9333333 25.6 22.9333333 32 25.0666667 32 25.0666667 31.1771071 23.7608183 31.1771071"></polygon>
                                <polygon id="Fill-12" fill="#FFFFFF" mask="url(#mask-2)" points="27.5954368 29.2845577 26.7351256 25.6 26.1333333 25.6 26.1333333 32 26.8047334 32 26.8047334 28.4616648 27.6948278 32 28.2666667 32 28.2666667 25.6 27.5954368 25.6"></polygon>
                                <path d="M31.1500223,31.1771071 L31.7833111,31.1771071 L31.7833111,26.4228929 L31.1500223,26.4228929 L31.1500223,31.1771071 Z M32.0333185,25.6 L30.4,25.6 L30.4,32 L32.0333185,32 C32.3082316,32 32.5333333,31.7530278 32.5333333,31.4605828 L32.5333333,26.1485953 C32.5333333,25.8559416 32.316787,25.6 32.0333185,25.6 Z" id="Fill-13" fill="#FFFFFF" mask="url(#mask-2)"></path>
                                <path d="M36.2999851,25.6 L35.1664914,25.6 C34.8666726,25.6 34.6666667,25.8286161 34.6666667,26.1485953 L34.6666667,28.7449319 C34.6666667,29.0194381 34.8750379,29.2845577 35.1664914,29.2845577 L36.0499777,29.2845577 L36.0499777,31.1771071 L35.4166889,31.1771071 L35.4166889,30.0709471 L34.6666667,30.0709471 L34.6666667,31.4605828 C34.6666667,31.7530278 34.8999436,32 35.1664914,32 L36.2999851,32 C36.5748983,32 36.8,31.7530278 36.8,31.4605828 L36.8,29.0102601 C36.8,28.7176064 36.5832635,28.4616648 36.2999851,28.4616648 L35.4166889,28.4616648 L35.4166889,26.4228929 L36.0499777,26.4228929 L36.0499777,27.4833714 L36.8,27.4833714 L36.8,26.1392087 C36.8,25.8286161 36.5832635,25.6 36.2999851,25.6" id="Fill-14" fill="#FFFFFF" mask="url(#mask-2)"></path>
                            </g>
                        </g>
                    </g>
                </g>
            </g>
        </g>
    </g>
</svg>